<svg xmlns="http://www.w3.org/2000/svg" viewBox="0 0 90 22" height="24px" width="90px">
<path fill="currentColor" d="M89.999 11 C89.999 11 90 11 90 11 C89.999 11.1 90 11.2 90 11.3 C89.966 12 89.9 12.7 89.7 13.3 C89.747 13.3 89.7 13.3 89.7 13.3 C88.671 18.3 84.3 22 79.2 22 C76.171 22 73.5 20.8 71.5 18.8 C71.511 18.8 71.5 18.8 71.5 18.8 C71.513 18.7 71.5 18.7 71.5 18.7 C69.56 16.7 68.4 14 68.4 11 C68.371 4.9 73.2 0 79.2 0 C82.171 0 84.9 1.2 86.8 3.2 C86.832 3.2 84.9 5.2 84.9 5.2 C83.444 3.7 81.4 2.8 79.2 2.8 C74.715 2.8 71.1 6.5 71.1 11 C71.091 12.9 71.8 14.7 72.8 16.1 C73.038 16.4 73.3 16.6 73.5 16.8 C73.471 16.8 73.4 16.8 73.4 16.8 C74.912 18.3 76.9 19.2 79.2 19.2 C83.163 19.2 86.5 16.3 87.1 12.4 C87.129 12.4 79.1 12.4 79.1 12.4 C79.116 12.4 79.1 9.6 79.1 9.6 C79.116 9.6 87.2 9.6 87.2 9.6 C87.156 9.6 88.9 9.6 88.9 9.6 C88.948 9.6 89.9 9.6 89.9 9.6 C89.961 10.1 90 10.5 90 11 ZM33.225 0 C33.225 0 33.2 2.8 33.2 2.8 C37.696 2.8 41.3 6.5 41.3 11 C41.319 15.5 37.7 19.2 33.2 19.2 C28.755 19.2 25.1 15.5 25.1 11 C25.13 11 22.4 11 22.4 11 C22.41 17.1 27.3 22 33.2 22 C39.198 22 44 17.1 44 11 C44.04 4.9 39.2 0 33.2 0 ZM19.575 6.5 C19.575 6.5 14.4 17.6 14.4 17.6 C13.971 18.5 13.2 19.2 12.6 19.2 C12.558 19.2 12.5 19.2 12.5 19.2 C11.817 19.2 11.1 18.5 10.6 17.6 C10.633 17.6 3 0.8 3 0.8 C2.999 0.8 0 0.8 0 0.8 C0 0.8 8.2 18.8 8.2 18.8 C9.078 20.8 10.7 22 12.5 22 C12.476 22 12.5 22 12.5 22 C14.331 22 15.9 20.8 16.9 18.8 C16.857 18.8 22 7.7 22 7.7 C22.016 7.7 22 7.7 22 7.7 C23.265 4.8 26.1 2.8 29.4 2.8 C29.435 2.8 29.4 0 29.4 0 C25.047 0 21.3 2.7 19.6 6.5 ZM56.167 0 C50.194 0 45.4 4.9 45.4 11 C45.352 17.1 50.2 22 56.2 22 C62.139 22 67 17.1 67 11 C66.981 4.9 62.1 0 56.2 0 ZM56.167 19.2 C51.711 19.2 48.1 15.5 48.1 11 C48.099 6.5 51.7 2.8 56.2 2.8 C60.622 2.8 64.2 6.5 64.2 11 C64.234 15.5 60.6 19.2 56.2 19.2 Z"></path>
</svg>
