<svg xmlns="http://www.w3.org/2000/svg" width="74" height="74" viewBox="0 0 74 74"><g><path fill="#F9D128" d="M71.372 23.314c4.026 10.148 3.562 22-2.34 32.19-7.792 13.52-22.83 20.238-37.383 18.108l17.187-29.768c3.778-6.56 1.533-14.915-5.012-18.68-2.136-1.26-4.5-1.85-6.818-1.85h34.365z"/><path fill="#D84839" d="M71.372 23.314H37.007c-4.723 0-9.32 2.472-11.85 6.87-2.475 4.257-2.37 9.353-.144 13.414L7.96 14.063C19.148-.133 39.377-4.345 55.478 4.955c7.516 4.328 12.925 10.902 15.895 18.36z"/><path fill="#5AAF5A" d="M48.837 43.844L31.65 73.612c-4.504-.65-8.953-2.158-13.138-4.562C.804 58.827-5.25 36.202 4.962 18.507c.914-1.596 1.917-3.055 3-4.444l17.052 29.535.144.246c1.156 2.013 2.852 3.767 5.012 4.998 6.53 3.78 14.894 1.535 18.667-4.998z"/><path fill="#4793C6" stroke="#fff" stroke-width="3" stroke-miterlimit="10" d="M43.69 25.164c6.544 3.766 8.79 12.12 5.01 18.68-3.77 6.534-12.136 8.78-18.667 5-2.16-1.232-3.855-2.986-5.012-5l-.143-.245c-2.226-4.062-2.33-9.158.144-13.416 2.53-4.396 7.128-6.87 11.85-6.87 2.318 0 4.684.59 6.82 1.85z"/></g></svg>