<svg width="37" height="38" viewBox="0 0 37 38" xmlns="http://www.w3.org/2000/svg" xmlns:xlink="http://www.w3.org/1999/xlink"><title>Imported Layers</title><desc>Created with Sketch.</desc><defs><path id="a" d="M13.077 14.715c.504.275.826.596.983.952.93-.88 1.758-1.522 2.462-1.93.314-.17.496-.428.557-.775-.114.107-.305.178-.575.222-1.34.436-2.48.952-3.428 1.53z"/></defs><g fill="none"><path d="M36.33 18.06C36.33 8.106 28.39.037 18.592.037 8.798.037.857 8.107.857 18.06s7.94 18.023 17.736 18.023S36.33 28.013 36.33 18.06" fill="#3DBCD7"/><path d="M12.572 10.07h-.01c-.26 1.513-.094 3.06.515 4.645.948-.58 2.088-1.095 3.428-1.53-.243-.41-.748-.775-1.514-1.095-.27-.08-.608-.32-1.026-.73l-1.07-1.067-.322-.258v.035" fill="#AF4A2C"/><path d="M15 12.063l-.01.027c.767.32 1.272.685 1.515 1.094.27-.044.46-.115.574-.222.008-.01.017-.018.026-.018l.008-.01c.01-.008.026-.026.035-.035.182-.276.12-.5-.192-.695-.653.036-1.306-.008-1.958-.142" fill="#0B0B0A"/><path d="M36.683 14.688c-.13 1.02-.27 1.648-.413 1.893 0-.038-.01-1.076-.33-2.54-.16-1.12-.404-2.165-.736-3.134.08.43.127.795.15 1.12-1.342-3.65-4.647-8.147-12.793-8.042 0 0 2.865.307 4.213 2.376 0 0-1.378-.333-2.42.178 1.37.553 2.547 1.134 3.532 1.743 1.914 1.24 3.868 3.123 3.734 5.616-.375-.596-.87-.988-1.506-1.183.783 3.114.86 5.685.226 7.714-.435-1.353-.835-2.163-1.192-2.447.496 4.173-.174 7.26-2.01 9.27.348-1.227.488-2.232.408-3.025-2.157 3.302-4.61 5.01-7.36 5.117-1.088-.01-2.115-.178-3.08-.5-.01.002-.02 0-.03.002h.03c-1.418-.487-2.704-1.315-3.846-2.493 1.785.153 3.413-.163 4.846-.905l2.35-1.558-.01-.008c.305-.117.592-.108.87.025.575-.08.775-.39.584-.916-.278-.392-.696-.748-1.236-1.06-1.175-.622-2.4-.525-3.68.303-1.22.703-2.393.676-3.533-.072-.748-.523-1.47-1.226-2.166-2.107 0 0-.278-.394-.278-.42v-.007c.034-.872.39-1.352 1.068-1.46l-.484-.042.486.043c.766.07 1.645.25 2.636.543.166-.97-.052-1.985-.652-3.026v-.017c-.157-.356-.48-.677-.983-.952-.61-1.584-.775-3.132-.514-4.645l.01-.045-.062-.062c.036-.017.062-.044.088-.062.148-.81.392-1.503.74-2.1l.078-.07c.348-.587 1.018-1.22 2-1.895-1.826.23-3.48 1.068-4.95 2.51-1.218-.455-2.662-.357-4.324.293l-.2.15-.01.005.21-.155.008-.01c-1.044-.49-1.748-1.886-2.088-4.172-1.33 1.334-1.975 3.72-1.932 7.162-.098.14-.224.328-.37.564-.037.03-.074.057-.11.087-.01 0-.018.008-.018.018-.01 0-.01.01-.01.01-.01.01-.018.018-.018.037-.204.322-.48.804-.833 1.457-.554 1.012-.713 1.853-.74 2.572.003-.007.008-.014.012-.02.005.148.024.292.06.426l1.08-.9C.792 16.878.53 17.945.4 19.075c-.4 3.71.617 7.376 3.07 10.997 3.68 4.868 8.31 7.476 13.88 7.822 5.568.338 10.32-1.76 14.243-6.282 2.654-3.327 4.28-6.806 4.89-10.445.61-2.5.68-4.662.2-6.477z" fill="#DE5F2A"/><mask><use xlink:href="#a"/></mask><use fill="#FFFBD2" xlink:href="#a"/></g></svg>