<svg width="40" height="39" viewBox="0 0 40 39" xmlns="http://www.w3.org/2000/svg"><title>Imported Layers</title><desc>Created with Sketch.</desc><g fill="none"><path d="M22.372 30.536c-2.994 0-5.598-1.674-6.928-4.138-.6-1.113-.942-2.386-.942-3.74v-.035h25.343c.075-.668.118-1.346.118-2.034 0-9.905-8.022-17.934-17.917-17.934-9.895 0-17.916 8.03-17.916 17.933 0 9.904 8.02 17.933 17.916 17.933 7.863 0 14.538-5.073 16.95-12.125H29.3c-1.33 2.464-3.933 4.138-6.928 4.138m-.326-19.748c4.02 0 7.305 3.148 7.53 7.115h-15.06c.225-3.967 3.51-7.115 7.53-7.115" fill="#377EF0"/><path d="M5.124 26.496C2.768 31.05 2.196 34.84 3.987 36.633c.278.278.605.498.975.664-1.525-1.576-.998-4.89.947-8.906-.297-.612-.56-1.245-.786-1.894m14.424-15.284c-2.095.736-3.768 2.372-4.555 4.444.313-.337.63-.672.953-1.005 1.184-1.224 2.392-2.374 3.602-3.438m14.573-8.81c-1.555 0-3.47.51-5.6 1.46.393.153.78.32 1.16.498 1.95-.88 3.704-1.353 5.127-1.353 1.165 0 2.108.317 2.76.99-.126-.197-.27-.378-.433-.543C36.42 2.74 35.39 2.402 34.12 2.4" fill="#BEC0C1"/><path d="M28.52 3.862c-4.18 1.866-9.19 5.433-13.944 10.192-4.193 4.197-7.46 8.592-9.452 12.442.226.65.49 1.282.785 1.895 1.885-3.894 5.105-8.45 9.083-12.734.787-2.072 2.46-3.708 4.555-4.444 3.525-3.102 7.072-5.474 10.13-6.852-.378-.18-.765-.345-1.16-.498" fill="#3366B7"/><path d="M12.8 36.132c-3.958 1.806-7.198 2.118-8.813.5-3.305-3.307 1.436-13.416 10.59-22.578C23.728 4.892 33.828.146 37.133 3.454c1.41 1.412 1.35 4.066.112 7.353.182.28.355.567.52.858 1.665-4.342 1.646-8.036-.54-10.225-3.393-3.395-16.266-.238-26.15 9.656C1.19 20.99-1.928 33.912 1.427 37.27c2.556 2.56 7.197 2.12 12.523-.504-.39-.197-.775-.41-1.15-.634" fill="#F9C63D"/></g></svg>