<svg width="25" height="44" viewBox="0 0 25 44" xmlns="http://www.w3.org/2000/svg"><title>Imported Layers</title><desc>Created with Sketch.</desc><path d="M21.328 0H3.672C1.652 0 0 1.65 0 3.667v36.666C0 42.35 1.653 44 3.672 44h17.656C23.348 44 25 42.35 25 40.333V3.667C25 1.65 23.348 0 21.328 0zM8.75 3h1.5c.138 0 .25.224.25.5s-.112.5-.25.5h-1.5c-.138 0-.25-.224-.25-.5s.112-.5.25-.5zm3.376 0h3.75c.345 0 .624.224.624.5s-.28.5-.625.5h-3.75c-.345 0-.625-.224-.625-.5s.28-.5.626-.5zM10 40.498C10 39.118 11.12 38 12.5 38c1.383 0 2.5 1.117 2.5 2.498 0 1.38-1.117 2.498-2.5 2.498-1.38 0-2.5-1.117-2.5-2.498zM2 6h21v31H2V6z" fill="#fff"/></svg>