<svg xmlns="http://www.w3.org/2000/svg" width="75" height="82" viewBox="0 0 75 82"><linearGradient id="a" gradientUnits="userSpaceOnUse" x1="121.863" y1="-185.503" x2="111.269" y2="-245.589" gradientTransform="matrix(.993 -.116 .116 .993 -53.45 272.42)"><stop offset="1" stop-color="#00B0D8"/><stop offset="1" stop-color="#0074A9"/><stop offset="1" stop-color="#00689F"/></linearGradient><circle fill="url(#a)" cx="37.231" cy="44.771" r="30.5"/><path fill="#EDEDED" d="M37.27 14.267c15.26 0 28.437 11.428 30.255 26.954 1.963 16.73-10.012 31.884-26.742 33.845-1.205.142-2.402.21-3.588.21-15.258 0-28.436-11.428-30.256-26.954C4.976 31.59 16.95 16.44 33.68 14.478c1.205-.14 2.404-.21 3.59-.21m0-6.725v6.725-6.725h-.002c-1.452 0-2.923.086-4.37.256-9.877 1.157-18.71 6.09-24.876 13.893S-.898 39.23.26 49.105C2.457 67.857 18.336 82 37.193 82c1.45 0 2.922-.086 4.37-.256 9.877-1.157 18.71-6.092 24.876-13.894 6.164-7.802 8.922-17.537 7.764-27.413C72.007 21.684 56.13 7.542 37.272 7.542z"/><g fill="#fff"><path d="M27.93 46.112c-.6-5.137 3.08-9.79 8.217-10.39 5.135-.605 9.79 3.074 10.392 8.21.6 5.14-3.076 9.79-8.213 10.392-5.137.604-9.792-3.073-10.396-8.212zm.48-.055c.58 4.874 4.985 8.354 9.86 7.792 4.875-.582 8.354-4.986 7.79-9.86-.58-4.875-4.983-8.355-9.858-7.793-4.873.58-8.356 4.984-7.793 9.86zM36.077 35.736c1.23-.144 2.432-.033 3.554.285l-4.693-10.548-2.117 11.296c.984-.53 2.08-.894 3.257-1.032zM30.13 39.234c.388-.49.855-.88 1.37-1.167l-5.436-2.086 3.274 4.784c.16-.54.422-1.06.793-1.53zM44.593 50.56c-.387.49-.855.878-1.37 1.166l5.437 2.088-3.273-4.783c-.163.54-.425 1.06-.794 1.53zM31.56 52.306c-.49-.388-.88-.854-1.167-1.37l-2.09 5.438L33.09 53.1c-.542-.162-1.06-.423-1.53-.794zM42.884 37.844c.492.387.88.855 1.167 1.37l2.088-5.436-4.782 3.273c.54.162 1.06.424 1.528.794zM38.396 54.3c-1.23.146-2.433.036-3.555-.283l4.696 10.55 2.116-11.296c-.983.532-2.08.893-3.256 1.03zM28.228 46.15c-.144-1.23-.034-2.432.284-3.555l-10.55 4.695 11.296 2.118c-.53-.985-.892-2.08-1.03-3.258zM46.316 43.887c.145 1.23.034 2.434-.285 3.556l10.55-4.694-11.296-2.12c.53.984.895 2.08 1.032 3.257z"/></g><linearGradient id="b" gradientUnits="userSpaceOnUse" x1="120.639" y1="-155.46" x2="115.72" y2="-160.379" gradientTransform="matrix(.999 -.046 .046 .999 -64.083 197.356)"><stop offset="1" stop-color="#EE4036"/><stop offset="1" stop-color="#F05A28"/></linearGradient><path fill="url(#b)" d="M34.612 42.373l21.76-18.682-16.62 23.372z"/><linearGradient id="c" gradientUnits="userSpaceOnUse" x1="225.403" y1="1616.209" x2="232.359" y2="1616.209" gradientTransform="matrix(.739 .674 -.674 .739 948.182 -1292.812)"><stop offset="1" stop-color="#F2F2F2"/><stop offset="1" stop-color="#ccc"/></linearGradient><path fill="url(#c)" d="M39.75 47.065L17.987 65.742l16.627-23.367z"/><path fill="#D1D1D1" d="M25.65 4.174C25.65 1.8 28.017.034 30.807 0c2.79-.026 5.195 1.686 5.246 4.06 0 2.376-2.367 4.14-5.156 4.174-2.79.025-5.197-1.686-5.25-4.06zm2.514-1.953c-.663.527-1.036 1.207-1.027 1.937.008.73.395 1.403 1.07 1.914.67.507 1.624.83 2.677.818 1.053-.012 1.996-.354 2.657-.875.664-.526 1.037-1.207 1.028-1.937-.008-.73-.396-1.402-1.07-1.913-.67-.508-1.62-.83-2.675-.817h-.005c-1.052.012-1.994.354-2.654.875z"/><path d="M25.638 4.184c0-2.375 2.37-4.14 5.16-4.173 2.788-.026 5.193 1.686 5.246 4.06 0 2.376-2.368 4.14-5.157 4.174-2.79.026-5.197-1.686-5.25-4.06zm2.515-1.953c-.663.527-1.035 1.207-1.027 1.938.008.73.395 1.403 1.07 1.914.67.506 1.623.83 2.677.817 1.054-.013 1.995-.355 2.657-.876.663-.526 1.036-1.207 1.028-1.937-.008-.73-.396-1.402-1.07-1.914-.673-.508-1.62-.83-2.675-.817h-.005c-1.053.012-1.995.354-2.655.875z" fill="none"/></svg>