<?xml version="1.0" encoding="utf-8"?>
<!-- Generator: Adobe Illustrator 16.2.1, SVG Export Plug-In . SVG Version: 6.00 Build 0)  -->
<!DOCTYPE svg PUBLIC "-//W3C//DTD SVG 1.1//EN" "http://www.w3.org/Graphics/SVG/1.1/DTD/svg11.dtd">
<svg version="1.1" id="Livello_1" xmlns="http://www.w3.org/2000/svg" xmlns:xlink="http://www.w3.org/1999/xlink" x="0px" y="0px"
	 width="74px" height="74px" viewBox="0 0 74 74" enable-background="new 0 0 74 74" xml:space="preserve">
<g id="XMLID_2_">
	<g>
		<path fill="#F9D128" d="M71.372,23.314c4.026,10.148,3.562,22.001-2.34,32.191C61.24,69.023,46.201,75.742,31.649,73.612
			l17.188-29.768c3.778-6.561,1.533-14.915-5.012-18.681c-2.136-1.26-4.501-1.849-6.818-1.849H71.372z"/>
		<path fill="#D84839" d="M71.372,23.314H37.007c-4.723,0-9.32,2.472-11.85,6.869c-2.475,4.258-2.369,9.354-0.144,13.415
			L7.961,14.063C19.147-0.133,39.376-4.345,55.477,4.955C62.993,9.283,68.402,15.857,71.372,23.314z"/>
		<path fill="#5AAF5A" d="M48.837,43.844L31.649,73.612c-4.503-0.65-8.952-2.158-13.137-4.562
			C0.804,58.827-5.251,36.202,4.962,18.507c0.914-1.596,1.917-3.055,2.999-4.444l17.053,29.535l0.144,0.246
			c1.156,2.013,2.852,3.767,5.012,4.998C36.7,52.623,45.064,50.377,48.837,43.844z"/>
		<path fill="#4793C6" stroke="#FFFFFF" stroke-width="3" stroke-miterlimit="10" d="M43.689,25.164c6.545,3.766,8.79,12.12,5.012,18.681
			c-3.772,6.533-12.137,8.778-18.668,4.998c-2.16-1.231-3.855-2.985-5.012-4.998l-0.144-0.246
			c-2.226-4.061-2.331-9.157,0.144-13.415c2.529-4.396,7.127-6.869,11.85-6.869C39.188,23.314,41.554,23.903,43.689,25.164z"/>
	</g>
</g>
</svg>
