<?xml version="1.0" encoding="UTF-8" standalone="no"?>
<svg width="37px" height="38px" viewBox="0 0 37 38" version="1.1" xmlns="http://www.w3.org/2000/svg" xmlns:xlink="http://www.w3.org/1999/xlink" xmlns:sketch="http://www.bohemiancoding.com/sketch/ns">
    <!-- Generator: Sketch 3.2 (9961) - http://www.bohemiancoding.com/sketch -->
    <title>Imported Layers</title>
    <desc>Created with Sketch.</desc>
    <defs>
        <path id="path-1" d="M13.0767412,14.7145459 C13.5814342,14.9904192 13.903318,15.3107642 14.0601623,15.6665371 C14.9911667,14.7855677 15.8177434,14.1451266 16.5223662,13.7359214 C16.8357303,13.5667467 17.0182961,13.3087118 17.0792325,12.9617336 C16.9662039,13.0685153 16.7747939,13.1395371 16.5050022,13.1840087 C15.1651316,13.6200131 14.0251908,14.136083 13.0767412,14.7145459 L13.0767412,14.7145459 Z"></path>
    </defs>
    <g id="Page-1" stroke="none" stroke-width="1" fill="none" fill-rule="evenodd" sketch:type="MSPage">
        <g id="Imported-Layers" sketch:type="MSLayerGroup">
            <path d="M36.3291316,18.0601223 C36.3291316,8.10611354 28.388818,0.0370873362 18.5933114,0.0370873362 C8.79804825,0.0370873362 0.857166667,8.10611354 0.857166667,18.0601223 C0.857166667,28.0134672 8.79804825,36.0829913 18.5933114,36.0829913 C28.388818,36.0829913 36.3291316,28.0134672 36.3291316,18.0601223" id="Fill-1" fill="#3DBCD7" sketch:type="MSShapeGroup"></path>
            <path d="M12.5719671,10.07 L12.5634474,10.07 C12.3021754,11.5825328 12.4675395,13.1308253 13.0767412,14.7145459 C14.0251908,14.136083 15.1651316,13.6200131 16.5050022,13.1840087 C16.2615,12.7747205 15.756807,12.4102358 14.9911667,12.0898908 C14.7212939,12.0096594 14.3820461,11.7694629 13.9642544,11.3601747 L12.8938509,10.292607 L12.5719671,10.0345721 L12.5719671,10.07" id="Fill-2" fill="#AF4A2C" sketch:type="MSShapeGroup"></path>
            <path d="M14.9996864,12.0629258 L14.9911667,12.0898908 C15.756807,12.4102358 16.2615,12.7747205 16.5050022,13.1840087 C16.7747939,13.1395371 16.9662039,13.0685153 17.0792325,12.9617336 C17.0880768,12.9529389 17.0966776,12.9438952 17.1056031,12.9438952 L17.1141228,12.9351004 C17.1226425,12.9259738 17.1401689,12.9082183 17.1490132,12.8993406 C17.3315789,12.6235502 17.2705614,12.4011092 16.9576031,12.2053843 C16.3049912,12.2411441 15.6522982,12.1966725 14.9996864,12.0629258" id="Fill-12" fill="#0B0B0A" sketch:type="MSShapeGroup"></path>
            <path d="M36.6834715,14.6879127 C36.5537281,15.7070262 36.4129496,16.3356026 36.2702237,16.5813581 C36.2699803,16.5417817 36.2601623,15.504 35.9393333,14.0390917 C35.7806228,12.9196681 35.5362281,11.8752489 35.2041206,10.9064148 C35.2834759,11.3367773 35.3311864,11.7009301 35.3537434,12.0254236 C34.0121689,8.37576419 30.7066732,3.87923581 22.561318,3.98435808 C22.561318,3.98435808 25.4249232,4.29084716 26.7729079,6.35993886 C26.7729079,6.35993886 25.3951447,6.02689956 24.3534649,6.53782533 C25.72425,7.09081659 26.9000548,7.67218341 27.8845307,8.28126201 C29.7993618,9.51875109 31.7529781,11.402821 31.6191776,13.8958865 C31.2448772,13.299917 30.7487039,12.9082183 30.1135373,12.7127424 C30.8969474,15.8268341 30.9754101,18.3978908 30.3402434,20.4268253 C29.9054123,19.0743406 29.5047412,18.264476 29.1476425,17.9798908 C29.6444649,22.1530044 28.9736776,25.240131 27.1379583,27.2506463 C27.485807,26.0231135 27.6255307,25.0178559 27.5464189,24.2254148 C25.3892215,27.5269345 22.9355373,29.2347773 20.1852851,29.3419738 C19.0980855,29.3325153 18.0711732,29.1641703 17.1056031,28.8434105 C17.0957851,28.8437424 17.0857237,28.8434105 17.0759057,28.8437424 C17.0853991,28.8433275 17.095136,28.8430786 17.1046294,28.8427467 C15.6875943,28.3571266 14.4024123,27.5289258 13.2601184,26.3507598 C15.045125,26.5027598 16.6727193,26.1865633 18.1060636,25.4449825 L20.4554013,23.8872314 L20.4468004,23.8792664 C20.751239,23.7633581 21.0384759,23.7720699 21.3172741,23.9054017 C21.8911798,23.8253362 22.0907851,23.513952 21.8996996,22.9891703 C21.6216316,22.5976376 21.2039211,22.2419476 20.6642566,21.9307293 C19.4894254,21.3075459 18.2625833,21.4051179 16.9836491,22.2325721 C15.7653268,22.9359869 14.5909013,22.9090218 13.4509605,22.1612183 C12.7024408,21.6369345 11.9802917,20.9336026 11.2841886,20.0528821 C11.2841886,20.0528821 11.0057961,19.659441 11.0057961,19.6335546 L11.0057961,19.6258384 C11.0403618,18.7539956 11.3955132,18.2742664 12.0741711,18.1674847 C11.8916053,18.1508079 11.7300548,18.1362882 11.5903311,18.1240917 C11.7307851,18.1357904 11.8929846,18.1500611 12.0761996,18.166821 C12.8418399,18.2378428 13.7208333,18.4157293 14.7124496,18.709524 C14.8778136,17.7396943 14.6603575,16.72531 14.0601623,15.6843755 L14.0601623,15.6665371 C13.903318,15.3107642 13.5814342,14.9904192 13.0767412,14.7145459 C12.4675395,13.1308253 12.3021754,11.5825328 12.5634474,10.07 L12.5719671,10.0254454 L12.5110307,9.96313537 C12.5459211,9.94571179 12.5719671,9.91874672 12.5980132,9.90115721 C12.745932,9.09137555 12.9897588,8.39733624 13.3376075,7.80103493 L13.415989,7.7300131 C13.7642434,7.14283843 14.434057,6.51119214 15.4173969,5.83507424 C13.5899539,6.06622707 11.9368004,6.90264192 10.4665373,8.34415284 C9.24821491,7.88997817 7.80391667,7.98804803 6.14183772,8.63761572 L5.94150219,8.788869 C5.93874342,8.79003057 5.93614693,8.79127511 5.93338816,8.79251965 L6.14183772,8.63761572 L6.15035746,8.62882096 C5.10632456,8.13938428 4.40170175,6.74234498 4.06229167,4.45595633 C2.73102193,5.79035371 2.08692982,8.17506114 2.13042105,11.6182096 C2.03151096,11.758262 1.90582456,11.9461048 1.75936623,12.1819039 C1.72309649,12.2111092 1.68577193,12.2392358 1.65007018,12.2691048 C1.64082018,12.2691048 1.63165132,12.2784803 1.63165132,12.2880218 C1.62240132,12.2880218 1.62240132,12.2973974 1.62240132,12.2973974 C1.61282675,12.3067729 1.60365789,12.3162314 1.60365789,12.3353974 C1.40032018,12.656821 1.12265789,13.1392052 0.771076754,13.7920917 C0.215995614,14.8044847 0.056879386,15.6452969 0.0292105263,16.3641441 C0.0334298246,16.3570087 0.0376491228,16.3503712 0.0418684211,16.3433188 C0.0467368421,16.4923319 0.0656425439,16.6356201 0.102967105,16.7697817 L1.18197149,15.8712227 C0.790550439,16.8765633 0.529278509,17.944048 0.398885965,19.0743406 C-0.00146052632,22.7843188 1.01685088,26.4502402 3.47061623,30.0710262 C7.15122368,34.938179 11.7803618,37.5455764 17.3490241,37.8918908 C22.9183355,38.2301572 27.6690219,36.1306987 31.593375,31.610441 C34.2468268,28.282869 35.8736908,24.8035459 36.4830548,21.1653362 C37.0926623,18.6650524 37.1617939,16.502952 36.6834715,14.6879127 L36.6834715,14.6879127 Z" id="Fill-13" fill="#DE5F2A" sketch:type="MSShapeGroup"></path>
            <mask id="mask-2" sketch:name="Clip 7" fill="white">
                <use xlink:href="#path-1"></use>
            </mask>
            <use id="Clip-7" fill="#FFFBD2" sketch:type="MSShapeGroup" xlink:href="#path-1"></use>
        </g>
    </g>
</svg>