<svg version="1.1" id="Layer_1" xmlns="http://www.w3.org/2000/svg" xmlns:xlink="http://www.w3.org/1999/xlink" x="0px" y="0px"
	 width="26px" height="26px" viewBox="0 0 26 26" enable-background="new 0 0 26 26" xml:space="preserve">
<path fill-rule="evenodd" clip-rule="evenodd" fill="#1B2124" d="M13,26C5.82,26,0,20.18,0,13S5.82,0,13,0s13,5.82,13,13
	S20.18,26,13,26z M14.438,23.316c0,0,0.012,0.268,0.095,0.564c0.166-0.023,0.333-0.045,0.497-0.074
	c-0.125-0.191-0.217-0.424-0.217-0.74v-2.312c0,0,0.075-0.852-0.375-1.203V23.316z M18.533,13.883c0-0.721-0.356-1.389-0.968-1.941
	c-1.009-0.914-2.706-0.422-4.632-0.422c-1.933,0-3.637-0.486-4.644,0.432c-0.604,0.553-0.956,1.217-0.956,1.932
	c0,2.988,2.507,3.455,5.6,3.455S18.533,17.246,18.533,13.883z M13,24c0.119,0,0.234-0.014,0.353-0.018
	c-0.086-0.203-0.152-0.434-0.165-0.729l-0.03-3.844h-0.314l-0.03,3.844c-0.012,0.295-0.079,0.525-0.165,0.729
	C12.766,23.986,12.881,24,13,24z M11.468,23.881c0.083-0.297,0.095-0.564,0.095-0.564v-3.799c-0.45,0.318-0.375,1.236-0.375,1.236
	v2.312c0,0.316-0.091,0.549-0.217,0.74C11.135,23.836,11.302,23.857,11.468,23.881z M13,2C6.925,2,2,6.926,2,13
	c0,4.971,3.298,9.166,7.822,10.529C9.965,23.275,10,23.035,10,23.035v-2.121c-2.952,0.658-3.563-1.395-3.563-1.395
	c-0.469-1.203-1.149-1.523-1.149-1.523c-0.945-0.648,0.07-0.633,0.07-0.633c1.048,0.078,1.595,1.078,1.595,1.078
	c0.978,1.682,2.606,1.08,3.12,0.834c0.156-0.73,0.571-1.121,0.92-1.414c-4.895,0-5.579-3.527-5.579-5.855
	c0-1.285,0.465-2.334,1.226-3.154C6.518,8.553,6.117,7.355,6.765,5.736c0,0,0.991-0.314,3.238,1.219
	c0.943-0.26,1.954-0.387,2.954-0.387c0.909,0,1.817,0.105,2.67,0.318c2.178-1.457,3.14-1.15,3.14-1.15
	c0.546,1.363,0.348,2.43,0.199,2.91c0.851,0.85,1.375,1.965,1.375,3.359c0,0.973,0.185,5.859-5.325,5.859
	C15.468,18.242,16,18.822,16,20.004v3.031c0,0,0.035,0.24,0.178,0.494C20.702,22.166,24,17.971,24,13C24,6.926,19.075,2,13,2z
	 M12.271,16.281c-0.018-0.049,0.009-0.104,0.057-0.119c0.049-0.018,0.103,0.008,0.12,0.057c0.075,0.211,0.275,0.354,0.5,0.354
	c0.224,0,0.425-0.143,0.5-0.354c0.017-0.049,0.07-0.074,0.119-0.057c0.049,0.016,0.074,0.07,0.057,0.119
	c-0.101,0.285-0.373,0.479-0.676,0.479C12.645,16.76,12.373,16.566,12.271,16.281z M16.157,12.377c0.644,0,1.166,0.752,1.166,1.678
	s-0.522,1.678-1.166,1.678s-1.165-0.752-1.165-1.678S15.514,12.377,16.157,12.377z M12.95,15.836c-0.161,0-0.291-0.131-0.291-0.291
	c0-0.162,0.13-0.293,0.291-0.293s0.292,0.131,0.292,0.293C13.242,15.705,13.111,15.836,12.95,15.836z M9.906,15.732
	c-0.643,0-1.165-0.752-1.165-1.678s0.522-1.678,1.165-1.678c0.644,0,1.165,0.752,1.165,1.678S10.55,15.732,9.906,15.732z"/>
</svg>
