<?xml version="1.0" encoding="UTF-8" standalone="no"?>
<svg width="40px" height="39px" viewBox="0 0 40 39" version="1.1" xmlns="http://www.w3.org/2000/svg" xmlns:xlink="http://www.w3.org/1999/xlink" xmlns:sketch="http://www.bohemiancoding.com/sketch/ns">
    <!-- Generator: Sketch 3.2 (9961) - http://www.bohemiancoding.com/sketch -->
    <title>Imported Layers</title>
    <desc>Created with Sketch.</desc>
    <defs></defs>
    <g id="Page-1" stroke="none" stroke-width="1" fill="none" fill-rule="evenodd" sketch:type="MSPage">
        <g id="Imported-Layers" sketch:type="MSLayerGroup">
            <path d="M22.3722963,30.5362586 C19.3776296,30.5362586 16.7742222,28.8616312 15.444,26.3978099 C14.8435556,25.285346 14.5023704,24.0118403 14.5023704,22.6587034 L14.5023704,22.6225209 L39.8447407,22.6225209 C39.92,21.9546274 39.9625185,21.2770951 39.9625185,20.5893308 C39.9625185,10.6848137 31.9411852,2.6560038 22.0460741,2.6560038 C12.1511111,2.6560038 4.12962963,10.6848137 4.12962963,20.5893308 C4.12962963,30.4936996 12.1511111,38.5226578 22.0460741,38.5226578 C29.9093333,38.5226578 36.5844444,33.4501369 38.9962963,26.3978099 L29.3002963,26.3978099 C27.9703704,28.8616312 25.3666667,30.5362586 22.3722963,30.5362586 M22.0460741,10.7875779 C26.0662222,10.7875779 29.3506667,13.9356046 29.5764444,17.9029278 L14.5157037,17.9029278 C14.7413333,13.9356046 18.0259259,10.7875779 22.0460741,10.7875779" id="Fill-1" fill="#377EF0" sketch:type="MSShapeGroup"></path>
            <path d="M5.12414815,26.4959772 C2.76755556,31.0503764 2.19555556,34.840346 3.98666667,36.6331597 C4.26459259,36.9114981 4.592,37.1312624 4.96162963,37.2974943 C3.43688889,35.7205894 3.96355556,32.4082586 5.90918519,28.3908137 C5.61288889,27.7777871 5.35037037,27.1453346 5.12414815,26.4959772 M19.5478519,11.2115361 C17.4527407,11.9476426 15.7804444,13.5835665 14.9933333,15.6559049 C15.3063704,15.3188441 15.6237037,14.9840076 15.9459259,14.6508023 C17.1300741,13.4260837 18.3380741,12.2756578 19.5478519,11.2115361 M34.121037,2.40139163 C32.565037,2.40139163 30.6494815,2.91106084 28.5191111,3.86203802 C28.9127407,4.01477567 29.2995556,4.1810076 29.6791111,4.36014068 C31.6305185,3.48138023 33.3841481,3.00730038 34.8074074,3.00715209 C35.9721481,3.0070038 36.9152593,3.32434221 37.5657778,3.99712928 C37.4411852,3.80034981 37.2977778,3.61869582 37.1337778,3.45439163 C36.4202963,2.74038023 35.3899259,2.40153992 34.121037,2.40139163" id="Fill-2" fill="#BEC0C1" sketch:type="MSShapeGroup"></path>
            <path d="M28.5191111,3.86203802 C24.338963,5.72825475 19.3303704,9.29519772 14.576,14.0539392 C10.3832593,18.2508137 7.11614815,22.6463954 5.12414815,26.4959772 C5.35037037,27.1453346 5.61288889,27.7777871 5.90918519,28.3908137 C7.79525926,24.4961521 11.0154074,19.9386388 14.9933333,15.6559049 C15.7804444,13.5835665 17.4527407,11.9476426 19.5478519,11.2115361 C23.0734815,8.11036882 26.6195556,5.73804183 29.6791111,4.36014068 C29.2995556,4.1810076 28.9127407,4.01477567 28.5191111,3.86203802" id="Fill-3" fill="#3366B7" sketch:type="MSShapeGroup"></path>
            <path d="M12.7992593,36.1320913 C8.84222222,37.9376578 5.60162963,38.2498061 3.98666667,36.6331597 C0.681777778,33.3251293 5.42281481,23.2159734 14.576,14.0539392 C23.7293333,4.89205323 33.829037,0.146361217 37.1337778,3.45439163 C38.5442963,4.86639924 38.4847407,7.51973384 37.2462222,10.8070038 C37.4275556,11.0880114 37.6014815,11.3740608 37.7674074,11.6654487 C39.4308148,7.32280608 39.4121481,3.62937262 37.2247407,1.43988593 C33.8334815,-1.95459696 20.96,1.20188213 11.0754074,11.0961673 C1.19066667,20.9904525 -1.92651852,33.9122053 1.428,37.2700608 C3.98414815,39.8286388 8.62474074,39.388962 13.9514074,36.7664715 C13.558963,36.568654 13.174963,36.3566008 12.7992593,36.1320913" id="Fill-4" fill="#F9C63D" sketch:type="MSShapeGroup"></path>
        </g>
    </g>
</svg>