<?xml version="1.0" encoding="UTF-8" standalone="no"?>
<svg width="25px" height="44px" viewBox="0 0 25 44" version="1.1" xmlns="http://www.w3.org/2000/svg" xmlns:xlink="http://www.w3.org/1999/xlink" xmlns:sketch="http://www.bohemiancoding.com/sketch/ns">
    <!-- Generator: Sketch 3.2 (9961) - http://www.bohemiancoding.com/sketch -->
    <title>Imported Layers</title>
    <desc>Created with Sketch.</desc>
    <defs></defs>
    <g id="Page-1" stroke="none" stroke-width="1" fill="none" fill-rule="evenodd" sketch:type="MSPage">
        <g id="Imported-Layers" sketch:type="MSLayerGroup" fill="#FFFFFF">
            <path d="M21.328,0 L3.672,0 C1.653,0 0,1.65 0,3.667 L0,40.333 C0,42.35 1.653,44 3.672,44 L21.328,44 C23.348,44 25,42.35 25,40.333 L25,3.667 C25,1.65 23.348,0 21.328,0 Z M8.75025536,3 L10.2500851,3 C10.3883214,3 10.5,3.22358555 10.5,3.50034083 C10.5,3.77641445 10.3883214,4 10.2500851,4 L8.75025536,4 C8.61201907,4 8.5,3.77641445 8.5,3.50034083 C8.5,3.22358555 8.61201907,3 8.75025536,3 Z M12.1256384,3 L15.8752128,3 C16.2208035,3 16.5,3.22358555 16.5,3.50034083 C16.5,3.77641445 16.2208035,4 15.8752128,4 L12.1256384,4 C11.7800477,4 11.5,3.77641445 11.5,3.50034083 C11.5,3.22358555 11.7800477,3 12.1256384,3 Z M10,40.498 C10,39.117 11.119,38 12.5,38 C13.883,38 15.001,39.117 15.001,40.498 C15.001,41.879 13.883,42.996 12.5,42.996 C11.119,42.996 10,41.879 10,40.498 Z M2,6 L23,6 L23,37 L2,37 L2,6 Z" id="Fill-1" sketch:type="MSShapeGroup"></path>
        </g>
    </g>
</svg>