<?xml version="1.0" encoding="utf-8"?>
<!-- Generator: Adobe Illustrator 16.2.1, SVG Export Plug-In . SVG Version: 6.00 Build 0)  -->
<!DOCTYPE svg PUBLIC "-//W3C//DTD SVG 1.1//EN" "http://www.w3.org/Graphics/SVG/1.1/DTD/svg11.dtd">
<svg version="1.1" id="Layer_1" xmlns="http://www.w3.org/2000/svg" xmlns:xlink="http://www.w3.org/1999/xlink" x="0px" y="0px"
	 width="67.707px" height="73px" viewBox="0 0 67.707 73" enable-background="new 0 0 67.707 73" xml:space="preserve">
<g>
	<path fill="#D84839" d="M53.296,5.739C47.945,2.042,41.327,0,33.865,0c-6.827,0-12.944,1.707-18.033,4.825
		C6.033,10.769,0,21.895,0,36.153C0,55.44,13.54,73,33.852,73c20.319,0,33.855-17.561,33.855-36.848
		C67.707,22.597,62.256,11.872,53.296,5.739z M33.865,6.45c10.896,0,13.112,15.205,13.112,29.014
		c0,12.791-1.233,29.912-12.979,29.912s-13.265-17.288-13.265-30.08C20.733,21.489,22.963,6.45,33.865,6.45z"/>
</g>
</svg>
