<?xml version="1.0" encoding="utf-8"?>
<!-- Generator: Adobe Illustrator 16.2.1, SVG Export Plug-In . SVG Version: 6.00 Build 0)  -->
<!DOCTYPE svg PUBLIC "-//W3C//DTD SVG 1.1//EN" "http://www.w3.org/Graphics/SVG/1.1/DTD/svg11.dtd">
<svg version="1.1" id="Layer_1" xmlns="http://www.w3.org/2000/svg" xmlns:xlink="http://www.w3.org/1999/xlink" x="0px" y="0px"
	 width="75px" height="82px" viewBox="0 0 75 82" enable-background="new 0 0 75 82" xml:space="preserve">
<g>
	
		<linearGradient id="SVGID_1_" gradientUnits="userSpaceOnUse" x1="121.8633" y1="-185.5034" x2="111.2685" y2="-245.5892" gradientTransform="matrix(0.9932 -0.1164 0.1164 0.9932 -53.4502 272.4204)">
		<stop  offset="1" style="stop-color:#00B0D8"/>
		<stop  offset="1" style="stop-color:#0074A9"/>
		<stop  offset="1" style="stop-color:#00689F"/>
	</linearGradient>
	<circle fill="url(#SVGID_1_)" cx="37.231" cy="44.771" r="30.5"/>
	<path fill="#EDEDED" d="M37.271,14.267c15.259-0.001,28.436,11.428,30.254,26.954c1.963,16.73-10.012,31.883-26.742,33.844
		c-1.205,0.142-2.402,0.21-3.588,0.21c-15.258,0-28.436-11.428-30.256-26.954C4.977,31.591,16.95,16.438,33.682,14.477
		C34.887,14.336,36.086,14.267,37.271,14.267 M37.272,7.542v6.725V7.542L37.272,7.542H37.27c-1.452,0-2.923,0.086-4.371,0.256
		c-9.876,1.157-18.71,6.091-24.875,13.893s-8.922,17.537-7.765,27.413C2.458,67.857,18.337,82,37.194,82
		c1.451,0,2.922-0.086,4.371-0.256c9.876-1.157,18.71-6.092,24.875-13.894c6.164-7.802,8.922-17.537,7.764-27.413
		C72.007,21.684,56.13,7.542,37.272,7.542L37.272,7.542z"/>
</g>
<g>
	<path fill="#FFFFFF" d="M27.931,46.112c-0.601-5.137,3.078-9.789,8.216-10.391l0,0c5.135-0.604,9.789,3.075,10.392,8.212l0,0
		c0.602,5.138-3.075,9.789-8.212,10.391l0,0C33.19,54.928,28.535,51.251,27.931,46.112L27.931,46.112z M28.409,46.057
		c0.581,4.874,4.986,8.354,9.861,7.792l0,0c4.875-0.581,8.354-4.985,7.791-9.86l0,0c-0.58-4.874-4.984-8.354-9.859-7.792l0,0
		C31.329,36.776,27.846,41.181,28.409,46.057L28.409,46.057z"/>
	<path fill="#FFFFFF" d="M36.077,35.736c1.23-0.144,2.432-0.033,3.554,0.285l-4.694-10.549L32.82,36.768
		C33.804,36.238,34.899,35.874,36.077,35.736z"/>
	<path fill="#FFFFFF" d="M30.131,39.234c0.387-0.491,0.854-0.879,1.37-1.167l-5.437-2.086l3.274,4.783
		C29.499,40.224,29.76,39.704,30.131,39.234z"/>
	<path fill="#FFFFFF" d="M44.593,50.56c-0.387,0.49-0.855,0.878-1.37,1.166l5.437,2.088l-3.273-4.783
		C45.224,49.57,44.962,50.09,44.593,50.56z"/>
	<path fill="#FFFFFF" d="M31.56,52.306c-0.491-0.388-0.879-0.854-1.167-1.37l-2.089,5.438l4.785-3.274
		C32.548,52.938,32.029,52.677,31.56,52.306z"/>
	<path fill="#FFFFFF" d="M42.884,37.844c0.492,0.387,0.879,0.855,1.167,1.37l2.087-5.436l-4.782,3.273
		C41.896,37.212,42.415,37.474,42.884,37.844z"/>
	<path fill="#FFFFFF" d="M38.396,54.301c-1.23,0.145-2.433,0.035-3.555-0.284l4.695,10.55l2.116-11.296
		C40.669,53.802,39.573,54.163,38.396,54.301z"/>
	<path fill="#FFFFFF" d="M28.228,46.15c-0.144-1.23-0.034-2.432,0.284-3.555L17.963,47.29l11.295,2.118
		C28.729,48.423,28.366,47.328,28.228,46.15z"/>
	<path fill="#FFFFFF" d="M46.316,43.887c0.145,1.23,0.034,2.434-0.285,3.556l10.55-4.694L45.284,40.63
		C45.813,41.614,46.179,42.709,46.316,43.887z"/>
</g>
<linearGradient id="SVGID_2_" gradientUnits="userSpaceOnUse" x1="120.6387" y1="-155.4604" x2="115.72" y2="-160.3791" gradientTransform="matrix(0.999 -0.0456 0.0456 0.999 -64.083 197.3555)">
	<stop  offset="1" style="stop-color:#EE4036"/>
	<stop  offset="1" style="stop-color:#F05A28"/>
</linearGradient>
<polygon fill="url(#SVGID_2_)" points="34.612,42.373 56.373,23.691 39.751,47.062 "/>
<linearGradient id="SVGID_3_" gradientUnits="userSpaceOnUse" x1="225.4033" y1="1616.209" x2="232.3594" y2="1616.209" gradientTransform="matrix(0.7386 0.6742 -0.6742 0.7386 948.1821 -1292.8115)">
	<stop  offset="1" style="stop-color:#F2F2F2"/>
	<stop  offset="1" style="stop-color:#CCCCCC"/>
</linearGradient>
<polygon fill="url(#SVGID_3_)" points="39.751,47.065 17.986,65.742 34.613,42.375 "/>
<path fill="#D1D1D1" d="M25.649,4.174c0-2.375,2.369-4.139,5.159-4.173l0,0c2.789-0.027,5.195,1.685,5.246,4.06l0,0
	c0,2.375-2.367,4.138-5.156,4.173l0,0C28.108,8.259,25.701,6.548,25.649,4.174L25.649,4.174z M28.164,2.221
	c-0.663,0.526-1.036,1.206-1.027,1.936l0,0c0.008,0.73,0.395,1.403,1.069,1.914l0,0c0.672,0.506,1.625,0.828,2.678,0.817l0,0
	c1.053-0.012,1.996-0.354,2.657-0.875l0,0c0.663-0.526,1.036-1.207,1.027-1.937l0,0c-0.008-0.73-0.396-1.402-1.069-1.913l0,0
	c-0.672-0.508-1.622-0.829-2.676-0.817l0,0h-0.005l0,0C29.766,1.358,28.824,1.7,28.164,2.221L28.164,2.221z"/>
<path fill="none" d="M25.638,4.184c0.001-2.375,2.369-4.139,5.159-4.173l0,0c2.789-0.027,5.194,1.685,5.247,4.06l0,0
	c0,2.375-2.368,4.138-5.157,4.173l0,0C28.097,8.27,25.69,6.558,25.638,4.184L25.638,4.184z M28.153,2.231
	c-0.663,0.526-1.035,1.206-1.027,1.937l0,0c0.008,0.73,0.395,1.403,1.069,1.914l0,0c0.672,0.506,1.624,0.829,2.678,0.817l0,0
	c1.054-0.012,1.995-0.354,2.657-0.875l0,0c0.663-0.526,1.036-1.207,1.028-1.937l0,0c-0.008-0.73-0.396-1.402-1.07-1.914l0,0
	c-0.673-0.508-1.621-0.829-2.675-0.817l0,0l-0.005,0l0,0C29.755,1.368,28.813,1.71,28.153,2.231L28.153,2.231z"/>
</svg>
